<svg id="SvgjsSvg1000" xmlns="http://www.w3.org/2000/svg" version="1.1" xmlns:xlink="http://www.w3.org/1999/xlink" xmlns:svgjs="http://svgjs.com/svgjs" width="38" height="48" viewBox="0 0 38 48"><title>Прямоугольник 2 копия</title><desc>Created with Avocode.</desc><defs id="SvgjsDefs1001"><clipPath id="SvgjsClipPath1009"><path id="SvgjsPath1008" d="M944.444 768.585L960 784.14192L975.556 768.585C976.337 767.8050000000001 977.604 767.8050000000001 978.385 768.585C979.1659999999999 769.3670000000001 979.1659999999999 770.633 978.385 771.414L961.414 788.385C960.633 789.165 959.367 789.165 958.586 788.385L941.615 771.414C940.8340000000001 770.633 940.8340000000001 769.367 941.615 768.585C942.396 767.8050000000001 943.663 767.8050000000001 944.444 768.585Z " fill="#ffffff"></path></clipPath><clipPath id="SvgjsClipPath1012"><path id="SvgjsPath1011" d="M944.444 755.585L960 771.14192L975.556 755.585C976.337 754.8050000000001 977.604 754.8050000000001 978.385 755.585C979.1659999999999 756.366 979.1659999999999 757.633 978.385 758.414L961.414 775.385C960.633 776.165 959.367 776.165 958.586 775.385L941.615 758.414C940.8340000000001 757.633 940.8340000000001 756.366 941.615 755.585C942.396 754.8050000000001 943.663 754.8050000000001 944.444 755.585Z " fill="#ffffff"></path></clipPath><clipPath id="SvgjsClipPath1015"><path id="SvgjsPath1014" d="M944.444 742.585L960 758.14192L975.556 742.585C976.337 741.8040000000001 977.604 741.8040000000001 978.385 742.585C979.1659999999999 743.366 979.1659999999999 744.633 978.385 745.414L961.414 762.385C960.633 763.165 959.367 763.165 958.586 762.385L941.615 745.414C940.8340000000001 744.633 940.8340000000001 743.366 941.615 742.585C942.396 741.8040000000001 943.663 741.8040000000001 944.444 742.585Z " fill="#ffffff"></path></clipPath></defs><path id="SvgjsPath1007" d="M944.444 768.585L960 784.14192L975.556 768.585C976.337 767.8050000000001 977.604 767.8050000000001 978.385 768.585C979.1659999999999 769.3670000000001 979.1659999999999 770.633 978.385 771.414L961.414 788.385C960.633 789.165 959.367 789.165 958.586 788.385L941.615 771.414C940.8340000000001 770.633 940.8340000000001 769.367 941.615 768.585C942.396 767.8050000000001 943.663 767.8050000000001 944.444 768.585Z " fill-opacity="0" fill="#ffffff" stroke-dasharray="0" stroke-linejoin="miter" stroke-linecap="butt" stroke-opacity="1" stroke="#ffffff" stroke-miterlimit="50" stroke-width="6" clip-path="url(&quot;#SvgjsClipPath1009&quot;)" transform="matrix(1,0,0,1,-941,-741)"></path><path id="SvgjsPath1010" d="M944.444 755.585L960 771.14192L975.556 755.585C976.337 754.8050000000001 977.604 754.8050000000001 978.385 755.585C979.1659999999999 756.366 979.1659999999999 757.633 978.385 758.414L961.414 775.385C960.633 776.165 959.367 776.165 958.586 775.385L941.615 758.414C940.8340000000001 757.633 940.8340000000001 756.366 941.615 755.585C942.396 754.8050000000001 943.663 754.8050000000001 944.444 755.585Z " fill-opacity="0" fill="#ffffff" stroke-dasharray="0" stroke-linejoin="miter" stroke-linecap="butt" stroke-opacity="1" stroke="#ffffff" stroke-miterlimit="50" stroke-width="6" clip-path="url(&quot;#SvgjsClipPath1012&quot;)" transform="matrix(1,0,0,1,-941,-741)"></path><path id="SvgjsPath1013" d="M944.444 742.585L960 758.14192L975.556 742.585C976.337 741.8040000000001 977.604 741.8040000000001 978.385 742.585C979.1659999999999 743.366 979.1659999999999 744.633 978.385 745.414L961.414 762.385C960.633 763.165 959.367 763.165 958.586 762.385L941.615 745.414C940.8340000000001 744.633 940.8340000000001 743.366 941.615 742.585C942.396 741.8040000000001 943.663 741.8040000000001 944.444 742.585Z " fill-opacity="0" fill="#ffffff" stroke-dasharray="0" stroke-linejoin="miter" stroke-linecap="butt" stroke-opacity="1" stroke="#ffffff" stroke-miterlimit="50" stroke-width="6" clip-path="url(&quot;#SvgjsClipPath1015&quot;)" transform="matrix(1,0,0,1,-941,-741)"></path></svg>